<svg xmlns="http://www.w3.org/2000/svg" viewBox="0 0 326.62 150.13"><defs><style>.cls-1{fill:#0d6efd;}.cls-2{fill:#fff;}.cls-3{fill:#0f78f4;}.cls-4{fill:#fcfcfc;}</style></defs><title>Asset 1</title><g id="Layer_2" data-name="Layer 2"><g id="Layer_1-2" data-name="Layer 1"><path class="cls-1" d="M32,126.1a18.71,18.71,0,0,1-10.92-3.51l-.15-.1a19.52,19.52,0,0,1-7.74-12.55L7.8,79.71a19.24,19.24,0,0,1,3-14.4,18.69,18.69,0,0,1,12.59-8.17A21,21,0,0,1,27,56.82a18,18,0,0,1,10.93,3.67A18.78,18.78,0,0,1,45.81,73l.33,1.87a9.27,9.27,0,0,1-8,11.48,13,13,0,0,1-2.28.21,8.83,8.83,0,0,1-7.2-3.3l2.14,12.1A16.28,16.28,0,0,1,38,92.25,15.62,15.62,0,0,1,40.68,92,9.38,9.38,0,0,1,50,98.44a14.26,14.26,0,0,1,.87,3.2l.27,1.57a19.29,19.29,0,0,1-3,14.5,18.6,18.6,0,0,1-12.6,8.07,21.09,21.09,0,0,1-3.59.32Z"/><path class="cls-2" d="M27,61.82a13,13,0,0,1,8,2.72,13.91,13.91,0,0,1,5.91,9.31l.33,1.87q.86,4.83-4,5.68a8,8,0,0,1-1.41.14c-2.43,0-3.89-1.37-4.37-4.09l-.33-1.87a4.59,4.59,0,0,0-1.8-3,4,4,0,0,0-2.5-.86,4.76,4.76,0,0,0-.83.08,4.1,4.1,0,0,0-2.87,1.87,4.65,4.65,0,0,0-.66,3.42l5.35,30.23a4.35,4.35,0,0,0,1.84,2.93,9.93,9.93,0,0,1,1.75-8.44,11.26,11.26,0,0,1,7.4-4.66A10.6,10.6,0,0,1,40.68,97a4.39,4.39,0,0,1,4.68,3.29,8.66,8.66,0,0,1,.6,2.23l.28,1.57A14.4,14.4,0,0,1,44,114.94a13.67,13.67,0,0,1-9.31,5.91,15,15,0,0,1-2.72.25,13.82,13.82,0,0,1-8.06-2.6,14.64,14.64,0,0,1-5.83-9.43L12.73,78.84A14.23,14.23,0,0,1,15,68.08a13.7,13.7,0,0,1,9.29-6A15,15,0,0,1,27,61.82m5.06,49.39a6.83,6.83,0,0,0,.91-.1,4.16,4.16,0,0,0,2.87-1.88,4.64,4.64,0,0,0,.66-3.42l-.29-1.68c0-.47-.33-.71-1-.74q-3.84,1.8-3.39,7.81h.19M27,51.82h0a26,26,0,0,0-4.45.4A23.75,23.75,0,0,0,6.73,62.44l0,.05,0,0a24.37,24.37,0,0,0-3.78,18l5.35,30.23a24.74,24.74,0,0,0,9.67,15.68l.14.1.14.1A23.62,23.62,0,0,0,32,131.1a25.24,25.24,0,0,0,4.46-.4,23.7,23.7,0,0,0,15.83-10.13l0,0,0,0a24.48,24.48,0,0,0,3.76-18.13l-.28-1.58a19.5,19.5,0,0,0-1.12-4.14A14.12,14.12,0,0,0,46.34,88a13.68,13.68,0,0,0,2.51-2.71A14.68,14.68,0,0,0,51.07,74l-.33-1.87a23.94,23.94,0,0,0-9.89-15.66A22.78,22.78,0,0,0,27,51.82Z"/><path class="cls-1" d="M89.23,145.13a12.27,12.27,0,0,1-7.37-2.45,13.59,13.59,0,0,1-5.46-8.8l-2.92-16.5a10.09,10.09,0,0,1-3.26,1.14,11.66,11.66,0,0,1-2,.18,13.71,13.71,0,0,1-6.59-1.79A19.09,19.09,0,0,1,52,103.17L46.62,72.94a19.16,19.16,0,0,1,3-14.4,18.62,18.62,0,0,1,12.58-8.16,20,20,0,0,1,3.58-.33,17.76,17.76,0,0,1,8.59,2.17,19,19,0,0,1,11-6,20.87,20.87,0,0,1,3.57-.32,17.88,17.88,0,0,1,10.93,3.67A18.79,18.79,0,0,1,107.75,62l5.35,30.23a18.82,18.82,0,0,1-6.32,18.14l-.12.1a10.15,10.15,0,0,1-4.75,2.32,9.71,9.71,0,0,1-1.77.16h0a9.74,9.74,0,0,1-5.87-2,11.08,11.08,0,0,1-2.09-2.07l2.83,16a8.11,8.11,0,0,1,3.44,2.25,11.72,11.72,0,0,1,3,6.09l0,.21c.75,5.64-2.12,9.83-7.49,11l-1.69.4A13.62,13.62,0,0,1,89.23,145.13Zm1.52-44.3c.33-.93.8-2.08,1.46-3.56l.08-.16c.58-1.19.89-1.92,1-2.33L88.47,67.27a9,9,0,0,1-3.23,2.41Z"/><path class="cls-2" d="M88.92,50.86a13,13,0,0,1,8,2.72,13.88,13.88,0,0,1,5.92,9.31l5.35,30.23a13.82,13.82,0,0,1-4.72,13.53,5.24,5.24,0,0,1-2.42,1.24,5.67,5.67,0,0,1-.9.08,4.64,4.64,0,0,1-2.86-1,5.2,5.2,0,0,1-2.07-3.34c-.07-.39.46-1.84,1.57-4.34s1.74-3.93,1.65-4.45L93.08,64.62a4.75,4.75,0,0,0-1.85-3,3.76,3.76,0,0,0-3.29-.79,5.21,5.21,0,0,0-3,2.88,4.23,4.23,0,0,1-2.85,1.72,5.45,5.45,0,0,1-.89.08,4.4,4.4,0,0,1-2-.45,15.8,15.8,0,0,1,.5,2l11.12,62.83.68-.22a3.43,3.43,0,0,1,1.11-.2,2.92,2.92,0,0,1,2.18,1,6.86,6.86,0,0,1,1.75,3.55q.6,4.56-3.61,5.41l-1.76.41a8.22,8.22,0,0,1-1.94.23,7.34,7.34,0,0,1-4.43-1.49A8.56,8.56,0,0,1,81.32,133L70,68.81a4.59,4.59,0,0,0-1.8-3,4.07,4.07,0,0,0-2.5-.86,5,5,0,0,0-.84.08A4.06,4.06,0,0,0,62,66.93a4.58,4.58,0,0,0-.67,3.41l3.57,20.19q6.08,2.18,7.89,12.42a23.49,23.49,0,0,1,.52,6.4,4.46,4.46,0,0,1-3.92,4.25,6.64,6.64,0,0,1-1.18.1A8.73,8.73,0,0,1,64,112.52a14,14,0,0,1-7.09-10.22L51.54,72.07A14.32,14.32,0,0,1,53.8,61.31a13.75,13.75,0,0,1,9.3-6,15.77,15.77,0,0,1,2.7-.25,13,13,0,0,1,8,2.72,15.39,15.39,0,0,1,2.41,2.1,4.94,4.94,0,0,1,1.37-3.68,14.13,14.13,0,0,1,8.65-5.09,15.74,15.74,0,0,1,2.7-.24m-20.17,53c.54-.37.67-1.37.38-3-.63-3.54-1.88-6-3.76-7.45l1.27,7.18a5.71,5.71,0,0,0,1.51,2.78l.6.51m20.17-63a25,25,0,0,0-4.44.4,24.06,24.06,0,0,0-11.1,5.06,22.84,22.84,0,0,0-7.58-1.27,26.1,26.1,0,0,0-4.45.4A23.81,23.81,0,0,0,45.54,55.67l0,.06,0,.05a24.34,24.34,0,0,0-3.77,18L47.05,104a23.85,23.85,0,0,0,12,17.18l.07,0,.06,0a18.63,18.63,0,0,0,9,2.41c.45,0,.89,0,1.34,0l2,11.11a18.53,18.53,0,0,0,7.44,12,17.44,17.44,0,0,0,10.32,3.41,18.41,18.41,0,0,0,4.22-.49l1.64-.39c7.89-1.68,12.45-8.28,11.36-16.49l0-.21,0-.21a17,17,0,0,0-4.28-8.63,13.55,13.55,0,0,0-2.62-2.19l-.63-3.6c.42,0,.85,0,1.28,0a16,16,0,0,0,2.65-.23,15.07,15.07,0,0,0,7.07-3.41l.12-.1.12-.1A23.89,23.89,0,0,0,118,91.38l-5.35-30.23a23.88,23.88,0,0,0-9.88-15.66,22.81,22.81,0,0,0-13.87-4.63Z"/><path class="cls-1" d="M132.7,108.27a18.73,18.73,0,0,1-10.92-3.51l-.14-.1a19.54,19.54,0,0,1-7.75-12.55l-5.35-30.23a19.15,19.15,0,0,1,3-14.4,20.28,20.28,0,0,1,3.31-3.79,17,17,0,0,1-4.05-8.52l-.75-4.23A17.31,17.31,0,0,1,112.83,18a16.84,16.84,0,0,1,11.22-7.33,19.26,19.26,0,0,1,3.26-.29,16.88,16.88,0,0,1,8.88,2.51,17.05,17.05,0,0,1,7.52,9.82,9.65,9.65,0,0,1-1.07,8.36A9.84,9.84,0,0,1,138,34.91a10.69,10.69,0,0,1,.95,2.91,11.24,11.24,0,0,1-.14,4.93,18.8,18.8,0,0,1,7.78,12.4l.33,1.87c1.05,5.92-2.1,10.43-8,11.48a13,13,0,0,1-2.28.21,8.83,8.83,0,0,1-7.2-3.3l3,16.72a9.48,9.48,0,0,1,1.25-2.48,9.84,9.84,0,0,1,6.53-4.06,12.22,12.22,0,0,1,2.21-.21c4.89,0,8.36,3.12,9.28,8.33l.3,1.67a19.15,19.15,0,0,1-3.13,14.56,18.47,18.47,0,0,1-12.48,8,21,21,0,0,1-3.59.32Z"/><path class="cls-2" d="M127.31,15.4a11.77,11.77,0,0,1,6.27,1.78,12.13,12.13,0,0,1,5.36,7,4.7,4.7,0,0,1-.49,4.14,5.08,5.08,0,0,1-3.56,2.26,7.2,7.2,0,0,1-1.18.11q-3.17,0-4.3-3.51a2.27,2.27,0,0,0-2.2-1.9,3.75,3.75,0,0,0-.56.05c-1.58.28-2.21,1.28-1.91,3l.75,4.24a2.28,2.28,0,0,0,2.39,2.19h.64q4.77,0,5.47,3.93c.54,3.06-.59,4.92-3.35,5.63a13.25,13.25,0,0,1,5.07,2.39A13.84,13.84,0,0,1,141.62,56l.33,1.87q.86,4.83-4,5.68a8,8,0,0,1-1.41.14c-2.43,0-3.88-1.37-4.36-4.09l-.34-1.87a4.62,4.62,0,0,0-1.79-3,4.07,4.07,0,0,0-2.5-.86,5,5,0,0,0-.84.08,4.12,4.12,0,0,0-2.87,1.87,4.65,4.65,0,0,0-.66,3.42l5.35,30.23a4.64,4.64,0,0,0,1.8,3,4,4,0,0,0,2.5.85,4.73,4.73,0,0,0,.83-.07,4.14,4.14,0,0,0,2.87-1.88,4.64,4.64,0,0,0,.67-3.42l-.3-1.68a4.82,4.82,0,0,1,.75-3.78,4.92,4.92,0,0,1,3.3-2,8.19,8.19,0,0,1,1.34-.13q3.62,0,4.36,4.2l.29,1.67a14.21,14.21,0,0,1-2.34,10.88,13.52,13.52,0,0,1-9.21,5.89,15,15,0,0,1-2.72.25,13.84,13.84,0,0,1-8.06-2.6,14.68,14.68,0,0,1-5.83-9.43L113.46,61a14.32,14.32,0,0,1,2.26-10.76,13.76,13.76,0,0,1,9.13-6,12.7,12.7,0,0,1-9.11-10L115,30.07a12.45,12.45,0,0,1,2-9.3,11.73,11.73,0,0,1,7.92-5.15,13.2,13.2,0,0,1,2.39-.22m0-10h0a23.39,23.39,0,0,0-4.13.37,21.69,21.69,0,0,0-14.45,9.39l0,.05,0,.06a22.38,22.38,0,0,0-3.51,16.54l.74,4.23a22.55,22.55,0,0,0,2.57,7.21c-.35.44-.68.89-1,1.36l0,0,0,.05a24.36,24.36,0,0,0-3.77,18L109,93a24.73,24.73,0,0,0,9.66,15.68l.14.1.14.1a23.66,23.66,0,0,0,13.79,4.41,25.07,25.07,0,0,0,4.46-.4,23.59,23.59,0,0,0,15.74-10.11,24.3,24.3,0,0,0,3.92-18.25l-.29-1.67c-1.1-6.18-5-10.58-10.4-12,4.53-3.13,6.77-8.52,5.67-14.71l-.33-1.87a23.89,23.89,0,0,0-7.37-13.63,17.5,17.5,0,0,0-.23-3.5,15.46,15.46,0,0,0,3-3.33,14.72,14.72,0,0,0,1.66-12.57,22.16,22.16,0,0,0-9.69-12.6A21.72,21.72,0,0,0,127.31,5.4Z"/><path class="cls-1" d="M170.52,101.7a11.51,11.51,0,0,1-6.71-2.14,11.7,11.7,0,0,1-4.88-7.7l-1.5-8.47a11.83,11.83,0,0,1,9.49-13.56,12.84,12.84,0,0,1,2.29-.21,11.78,11.78,0,0,1,6.43,1.89,11.15,11.15,0,0,1,5,7.67l1.52,8.56a11.86,11.86,0,0,1-1.77,8.79,11.32,11.32,0,0,1-7.68,5A12.59,12.59,0,0,1,170.52,101.7Zm-3.88-12.54Z"/><path class="cls-2" d="M169.21,74.62a6.75,6.75,0,0,1,3.72,1.1,6.17,6.17,0,0,1,2.8,4.33l1.52,8.56a6.86,6.86,0,0,1-1,5.16,6.35,6.35,0,0,1-4.38,2.81,7.56,7.56,0,0,1-1.33.12A6.84,6.84,0,0,1,163.86,91l-1.5-8.46a6.84,6.84,0,0,1,5.43-7.77,7.73,7.73,0,0,1,1.42-.13m1.44,16.16h.17c.79-.14,1-1.2.66-3.17l-.8-4.53c-.49-1.68-1.06-2.52-1.72-2.52h-.14c-.73.13-.92,1.14-.58,3L169,88c.33,1.83.87,2.74,1.63,2.74m-1.44-26.16a19,19,0,0,0-3.17.28,16.84,16.84,0,0,0-13.53,19.36l1.5,8.47a16.86,16.86,0,0,0,16.51,14,17.91,17.91,0,0,0,3.08-.28,16.22,16.22,0,0,0,11-7.13,16.82,16.82,0,0,0,2.53-12.42l-1.52-8.57a16.31,16.31,0,0,0-7.23-11,16.91,16.91,0,0,0-9.14-2.69Z"/><path class="cls-1" d="M164.43,67.43a11.72,11.72,0,0,1-11.55-9.74l-1.49-8.47a11.77,11.77,0,0,1,1.89-8.72,11.28,11.28,0,0,1,7.55-5,12.21,12.21,0,0,1,2.16-.19,11.77,11.77,0,0,1,6.59,2,11.31,11.31,0,0,1,5,7.62l1.53,8.66a11.66,11.66,0,0,1-1.87,8.76,11.41,11.41,0,0,1-7.59,4.9,13.11,13.11,0,0,1-2.23.2Zm-3.86-12.62Z"/><path class="cls-2" d="M163,40.27a6.86,6.86,0,0,1,3.83,1.19,6.33,6.33,0,0,1,2.85,4.32l1.53,8.66a6.65,6.65,0,0,1-1.08,5.07,6.43,6.43,0,0,1-4.33,2.8,8.07,8.07,0,0,1-1.36.12,6.68,6.68,0,0,1-3.81-1.19,6.5,6.5,0,0,1-2.81-4.43l-1.5-8.46a6.78,6.78,0,0,1,1.13-5.08,6.32,6.32,0,0,1,4.26-2.89,8.22,8.22,0,0,1,1.29-.11m1.57,16.15.18,0c.79-.14,1-1.16.68-3.07l-.8-4.52c-.49-1.69-1.07-2.53-1.73-2.53h-.14c-.72.13-.91,1.15-.58,3.05l.79,4.43c.31,1.77.84,2.65,1.6,2.65M163,30.27a17.32,17.32,0,0,0-3,.27,16.15,16.15,0,0,0-10.85,7.21,16.68,16.68,0,0,0-2.65,12.34l1.5,8.47a16.39,16.39,0,0,0,7,11,16.72,16.72,0,0,0,9.43,2.92,18.12,18.12,0,0,0,3.1-.27,16.3,16.3,0,0,0,10.86-7,16.57,16.57,0,0,0,2.66-12.43L179.51,44a16.18,16.18,0,0,0-7.16-10.91A16.94,16.94,0,0,0,163,30.27Z"/><path class="cls-1" d="M221.52,115.42a20.15,20.15,0,0,1-3.59-.33,18.77,18.77,0,0,1-12.53-8l-.1-.14a19.55,19.55,0,0,1-3-14.45l5.39-30.23a19.16,19.16,0,0,1,7.79-12.47,18.69,18.69,0,0,1,11.07-3.66,20.66,20.66,0,0,1,3.56.32,18.07,18.07,0,0,1,12.46,8.14,18.83,18.83,0,0,1,3.12,14.45l-5.39,30.22a19.1,19.1,0,0,1-8,12.59,18.37,18.37,0,0,1-10.86,3.55Z"/><path class="cls-2" d="M226.6,51.15a14.54,14.54,0,0,1,2.68.25,13.17,13.17,0,0,1,9.19,6,13.88,13.88,0,0,1,2.35,10.78L235.43,98.4a14.23,14.23,0,0,1-6,9.41,13.38,13.38,0,0,1-8,2.61,16.09,16.09,0,0,1-2.72-.25,13.88,13.88,0,0,1-9.3-5.93,14.6,14.6,0,0,1-2.23-10.86l5.39-30.22a14.26,14.26,0,0,1,5.83-9.32,13.67,13.67,0,0,1,8.11-2.69m-5.22,49.35a4.08,4.08,0,0,0,2.5-.85,4.61,4.61,0,0,0,1.8-3l5.39-30.23a4.64,4.64,0,0,0-.66-3.42,4.11,4.11,0,0,0-2.86-1.88,5,5,0,0,0-.85-.08,4,4,0,0,0-2.49.86,4.59,4.59,0,0,0-1.8,3L217,95.12a4.54,4.54,0,0,0,.66,3.42,4.09,4.09,0,0,0,2.86,1.88,5,5,0,0,0,.84.08m5.22-59.35a23.55,23.55,0,0,0-13.93,4.55l0,0-.05,0a24.34,24.34,0,0,0-9.75,15.63l-5.39,30.23a24.71,24.71,0,0,0,3.67,18l.1.15.1.14A23.91,23.91,0,0,0,217.05,120a25.37,25.37,0,0,0,4.47.41,23.27,23.27,0,0,0,13.78-4.48,24.22,24.22,0,0,0,10-15.78l5.39-30.23a23.94,23.94,0,0,0-3.88-18.1A23.2,23.2,0,0,0,231,41.55a25.9,25.9,0,0,0-4.44-.4Z"/><path class="cls-1" d="M278.82,125.63a21.3,21.3,0,0,1-3.6-.32,18.65,18.65,0,0,1-8.66-4,18.14,18.14,0,0,1-6.23,1.08,20.51,20.51,0,0,1-3.63-.33,18.75,18.75,0,0,1-12.53-8l-.1-.15a19.55,19.55,0,0,1-2.95-14.45l5.39-30.22a18.92,18.92,0,0,1,9.55-13.59,10.33,10.33,0,0,1,5-1.34,9.77,9.77,0,0,1,7.18,3.15,9.5,9.5,0,0,1,4.42-1.08,10,10,0,0,1,1.72.15,9.88,9.88,0,0,1,1.42.37,17.16,17.16,0,0,1-.32-7.73l.76-4.23a17.29,17.29,0,0,1,7-11.18,16.71,16.71,0,0,1,9.92-3.3,18.69,18.69,0,0,1,3.14.28,17.2,17.2,0,0,1,14.31,18.08,9.64,9.64,0,0,1-3.89,7.47,10,10,0,0,1-5.7,2,10.61,10.61,0,0,1-.12,3.06,12.27,12.27,0,0,1-1,3.14,17.65,17.65,0,0,1,1.5,2.76,19.75,19.75,0,0,1,1.59,12l-5.39,30.23a19.09,19.09,0,0,1-7.95,12.59A18.36,18.36,0,0,1,278.82,125.63Z"/><path class="cls-2" d="M293.19,35.52a12.59,12.59,0,0,1,2.26.21A12,12,0,0,1,303,40.18a12.18,12.18,0,0,1,2.61,8.44,4.71,4.71,0,0,1-1.89,3.72,4.84,4.84,0,0,1-3,1,6.33,6.33,0,0,1-1.12-.11c-2.75-.49-4.08-2.18-4-5.07a2.27,2.27,0,0,0-2-2.69,3.52,3.52,0,0,0-.63-.06c-1.19,0-1.93.74-2.19,2.2l-.75,4.23a2.29,2.29,0,0,0,1.61,2.93q5,1.6,4.26,5.74c-.41,2.28-1.46,3.61-3.14,4a9.8,9.8,0,0,1,4,4.81,14.86,14.86,0,0,1,1.23,9.06l-5.39,30.22a14.2,14.2,0,0,1-5.94,9.4,13.38,13.38,0,0,1-8,2.61,15.13,15.13,0,0,1-2.72-.25,13.92,13.92,0,0,1-8.54-5.07,13.23,13.23,0,0,1-7.23,2.12,15.48,15.48,0,0,1-2.76-.25,13.9,13.9,0,0,1-9.3-5.92A14.62,14.62,0,0,1,246,100.4l5.39-30.23a13.85,13.85,0,0,1,7.09-10.11,5.27,5.27,0,0,1,2.53-.69,4.65,4.65,0,0,1,.83.07A5.3,5.3,0,0,1,266,65.36a13.09,13.09,0,0,1-2.4,3.22c-1.53,1.76-2.34,2.87-2.42,3.33l-5.39,30.22a4.54,4.54,0,0,0,.66,3.42,4.1,4.1,0,0,0,2.86,1.89,5,5,0,0,0,.85.07,4,4,0,0,0,2.49-.85,4.59,4.59,0,0,0,1.8-3l5.39-30.22a4.41,4.41,0,0,0-.94-3.83,4.72,4.72,0,0,1-1.22-4,5,5,0,0,1,2.1-3.24,4.85,4.85,0,0,1,2.87-1,4.76,4.76,0,0,1,.84.07,5,5,0,0,1,2.94,1.75,13.86,13.86,0,0,1,3.16,11.93l-4.94,27.67c.06.08,0,.34,0,.8l-.3,1.68a4.65,4.65,0,0,0,.66,3.42,4.13,4.13,0,0,0,2.87,1.88,4.92,4.92,0,0,0,.84.07,4.06,4.06,0,0,0,2.5-.85,4.67,4.67,0,0,0,1.8-3l5.39-30.22c.34-1.9-.46-3.54-2.38-4.9a3.64,3.64,0,0,1-1.44-3.91,5.31,5.31,0,0,1,2-3.35,4.72,4.72,0,0,1,1.2-.66,11.71,11.71,0,0,1-5.38-4.44,12.21,12.21,0,0,1-2-9.29l.76-4.24a12.4,12.4,0,0,1,5.09-8,11.66,11.66,0,0,1,6.95-2.32m0-10a21.52,21.52,0,0,0-12.78,4.2l-.06,0-.06,0a22.43,22.43,0,0,0-9,14.32l-.75,4.23a22,22,0,0,0-.35,3.3c-.32.05-.64.12-1,.19a14.52,14.52,0,0,0-5.61-2.24,14.82,14.82,0,0,0-2.58-.23,15.24,15.24,0,0,0-7.31,1.9l-.07,0-.07,0a23.78,23.78,0,0,0-12,17.07L236.2,98.64a24.75,24.75,0,0,0,3.67,18l.1.14.1.15a24,24,0,0,0,15.75,10,25.71,25.71,0,0,0,4.51.4,23.34,23.34,0,0,0,5.3-.6,23.75,23.75,0,0,0,8.72,3.4,25.26,25.26,0,0,0,4.47.4,23.26,23.26,0,0,0,13.78-4.47,24.34,24.34,0,0,0,10-15.79L308,80.15a24.78,24.78,0,0,0-2-14.92c-.18-.4-.36-.79-.56-1.18.15-.51.27-1,.38-1.58a15.4,15.4,0,0,0,3.93-2.11,14.68,14.68,0,0,0,5.88-11.23,22.19,22.19,0,0,0-18.42-23.25,23,23,0,0,0-4-.36Z"/><path class="cls-2" d="M303.9,117.77c-2.87,4.58-6.35,9-11,11.82a24.3,24.3,0,0,1-13.77,3.11,52,52,0,0,1-9.92-1.57c-1.87-.46-2.67,2.43-.8,2.89,5.84,1.43,11.95,2.31,17.92,1.21a26,26,0,0,0,13.66-7.46,47.81,47.81,0,0,0,6.55-8.49c1-1.64-1.56-3.14-2.59-1.51Z"/><path class="cls-3" d="M304.08,23c7.6,1.95,13.06,8.52,14.95,16,.48,1.87,3.38,1.08,2.9-.8-2.15-8.42-8.47-15.84-17.05-18-1.87-.48-2.67,2.42-.8,2.9Z"/><path class="cls-4" d="M309.43,19.68c7.51,2.26,12.66,9.09,14.26,16.58.4,1.89,3.29,1.09,2.89-.8-1.81-8.51-7.87-16.12-16.35-18.67-1.86-.56-2.65,2.34-.8,2.89Z"/><path class="cls-2" d="M102,33.55c-.24-5.24.21-10.64,2.32-15.51a25.22,25.22,0,0,1,9.2-10.81A39.7,39.7,0,0,1,121.88,3c1.79-.68,1-3.58-.8-2.9-5.36,2-10.53,4.82-14.47,9.05a28.29,28.29,0,0,0-7,14A44.47,44.47,0,0,0,99,33.55c.09,1.92,3.09,1.93,3,0Z"/><path class="cls-3" d="M19.83,138.29c-7.57-.8-14-6.52-16.86-13.39a1.55,1.55,0,0,0-1.84-1.05,1.52,1.52,0,0,0-1,1.85c3.44,8.22,10.71,14.63,19.75,15.59a1.5,1.5,0,0,0,1.5-1.5,1.54,1.54,0,0,0-1.5-1.5Z"/><path class="cls-4" d="M25.21,133.68c-7.8-.76-14.13-6.59-17.14-13.58A1.5,1.5,0,0,0,6,119.56a1.54,1.54,0,0,0-.54,2c3.45,8,10.91,14.21,19.73,15.07a1.51,1.51,0,0,0,1.5-1.5,1.53,1.53,0,0,0-1.5-1.5Z"/></g></g></svg>